<?xml version="1.0" standalone="no"?>
<!DOCTYPE svg PUBLIC "-//W3C//DTD SVG 20010904//EN"
 "http://www.w3.org/TR/2001/REC-SVG-20010904/DTD/svg10.dtd">
<svg version="1.0" xmlns="http://www.w3.org/2000/svg"
 width="512.000000pt" height="512.000000pt" viewBox="0 0 512.000000 512.000000"
 preserveAspectRatio="xMidYMid meet">
<metadata>
Created by potrace 1.16, written by Peter Selinger 2001-2019
</metadata>
<g transform="translate(0.000000,512.000000) scale(0.100000,-0.100000)"
fill="#000000" stroke="none">
<path d="M2420 4771 l-55 -18 58 -18 c31 -10 57 -22 57 -27 0 -4 -38 -8 -84
-8 -236 0 -536 -68 -781 -177 -497 -222 -947 -729 -1137 -1283 -79 -231 -111
-440 -111 -715 0 -214 14 -331 58 -504 61 -242 196 -525 333 -701 19 -25 32
-36 27 -25 -26 70 -74 219 -71 222 9 10 163 -191 238 -312 4 -7 -5 -10 -30 -7
-36 3 -34 0 123 -154 168 -165 297 -269 430 -346 174 -100 430 -180 725 -228
74 -11 167 -31 205 -43 58 -18 94 -22 212 -22 l143 0 0 -47 c0 -58 -8 -56 156
-23 182 37 318 85 509 180 197 98 318 180 339 228 17 40 56 78 56 54 0 -9 -4
-28 -10 -42 -9 -23 2 -17 73 37 127 98 400 376 485 495 39 57 72 106 72 109 0
10 -71 -6 -105 -23 -16 -8 -54 -33 -82 -54 -65 -49 -73 -29 -12 32 43 43 120
83 179 94 33 6 39 14 87 104 67 126 126 273 166 419 l32 117 -2 289 c-5 569
-65 808 -311 1227 -49 85 -97 169 -107 188 -45 89 53 -39 145 -189 215 -350
318 -720 321 -1153 2 -160 2 -166 11 -92 26 223 -28 574 -134 872 -243 685
-878 1246 -1597 1409 -58 13 -117 24 -130 24 -14 0 -43 9 -65 20 -29 14 -73
21 -153 26 l-112 7 -26 38 c-29 45 -42 47 -125 20z m357 -97 c21 -6 18 -10
-33 -56 -30 -28 -53 -52 -51 -55 2 -2 73 -15 158 -29 191 -31 370 -89 546
-177 188 -93 423 -252 423 -286 0 -5 -33 -17 -72 -26 -87 -21 -178 -54 -177
-63 0 -4 29 -31 65 -60 57 -47 66 -51 84 -40 23 14 19 17 156 -135 l61 -69 42
59 42 58 -63 58 c-35 32 -79 69 -99 82 -33 23 -39 24 -89 15 -56 -11 -71 -5
-90 31 -8 14 -1 19 54 33 35 8 70 18 78 21 20 8 61 -28 178 -155 l92 -100 -55
-82 c-36 -54 -53 -87 -48 -96 5 -8 29 -31 55 -51 39 -29 59 -58 109 -156 59
-114 65 -121 119 -152 31 -18 75 -54 97 -79 23 -26 41 -44 41 -41 0 3 -14 43
-32 88 -42 110 -129 281 -206 403 -34 54 -62 103 -62 109 0 37 194 -240 258
-369 82 -163 146 -393 158 -563 6 -74 5 -77 -25 -113 -17 -20 -54 -50 -83 -66
l-51 -30 84 -42 c104 -52 167 -91 174 -107 2 -7 -39 9 -93 35 -53 27 -123 59
-154 72 -32 13 -58 29 -58 36 0 7 27 29 60 50 61 37 76 58 23 31 -15 -8 -38
-18 -50 -21 l-23 -7 0 129 c0 140 -16 247 -56 375 -24 73 -29 81 -72 108 -42
26 -53 42 -102 141 -39 79 -64 117 -86 131 -17 12 -42 37 -55 56 -13 19 -81
94 -151 166 -238 245 -526 422 -789 484 -96 23 -236 41 -324 41 -43 0 -56 3
-48 11 8 8 62 10 175 7 230 -7 370 -46 568 -159 39 -22 74 -38 77 -35 10 10
-18 35 -76 68 -47 28 -52 34 -33 36 51 8 163 -77 184 -139 3 -10 108 89 116
110 1 4 -36 35 -82 69 l-85 63 -123 -11 c-93 -8 -126 -14 -135 -26 -11 -15
-22 -14 -125 14 -62 17 -131 36 -153 41 -30 8 -53 25 -86 63 -25 29 -91 101
-146 159 -55 59 -103 116 -106 128 -5 20 -2 21 71 21 43 0 87 -3 99 -6z m-37
-216 c0 -15 -163 -203 -176 -203 -7 0 -49 42 -94 94 l-81 94 74 76 c67 69 107
121 92 121 -3 0 -47 -42 -97 -92 -82 -83 -99 -95 -153 -111 -33 -10 -67 -20
-76 -23 -12 -4 -18 2 -23 20 -5 21 -12 26 -39 26 -80 -1 -235 -49 -405 -126
-63 -29 -63 -29 -57 -64 25 -142 22 -149 -58 -196 -94 -55 -188 -124 -182
-134 3 -5 54 23 113 61 59 39 153 93 210 120 180 88 514 186 526 154 3 -9 18
-10 53 -4 66 11 119 11 108 0 -6 -4 -53 -14 -105 -21 -287 -38 -653 -180 -850
-331 l-35 -27 -98 60 -98 61 -45 -44 c-32 -32 -43 -50 -40 -64 5 -20 -7 -158
-19 -225 -6 -31 -3 -28 31 29 22 36 63 91 92 123 55 59 56 59 100 30 9 -6 -17
-38 -91 -113 -171 -173 -260 -303 -355 -519 -86 -194 -121 -322 -142 -514 -5
-49 -11 -90 -13 -92 -1 -2 -32 15 -67 38 -36 22 -85 49 -109 60 l-44 18 7 63
c20 177 95 419 189 606 34 69 67 126 72 128 6 2 18 -28 27 -66 15 -61 16 -75
4 -109 -27 -76 -44 -99 -91 -121 -25 -11 -45 -22 -45 -24 0 -1 -13 -42 -30
-90 -16 -49 -30 -93 -30 -98 0 -24 20 5 35 51 9 28 20 50 23 50 4 0 17 3 29 6
21 6 21 4 -9 -73 -32 -82 -40 -93 -74 -93 -19 0 -24 -10 -38 -87 -9 -47 -15
-87 -13 -88 25 -13 61 -25 64 -21 3 3 12 36 19 73 25 120 66 231 120 330 29
53 67 129 84 170 34 82 34 88 -6 208 -22 65 -22 71 -7 95 90 140 358 420 499
522 155 111 341 212 489 266 107 39 307 88 429 106 l98 14 56 56 56 55 98
-101 c54 -56 98 -106 98 -110z m-550 185 c0 -5 -26 -20 -58 -35 -31 -15 -74
-43 -94 -63 -21 -20 -62 -44 -91 -54 -126 -44 -318 -141 -462 -236 -86 -56
-291 -234 -393 -343 -235 -248 -428 -623 -502 -973 -12 -57 -25 -162 -29 -234
-6 -125 -7 -130 -27 -127 -15 2 -23 -4 -27 -19 -6 -21 -4 -22 67 -16 40 3 90
13 112 22 l39 16 -53 49 c-45 43 -64 70 -47 70 11 0 185 -121 185 -128 0 -5
-21 -14 -47 -21 -27 -7 -97 -38 -158 -69 l-110 -57 -3 -43 c-2 -24 6 -94 18
-155 38 -200 115 -411 202 -556 105 -173 375 -478 400 -453 16 16 9 27 -87
147 -234 291 -365 592 -419 960 -5 38 -3 41 57 97 34 32 81 71 103 88 l41 29
8 -72 c24 -249 139 -556 295 -788 l58 -87 -25 -25 -25 -24 34 -21 c57 -35 64
-58 49 -163 -7 -50 -11 -92 -9 -94 2 -3 21 16 42 41 47 56 70 65 118 48 20 -7
38 -10 41 -8 3 3 8 1 11 -5 12 -19 -34 -34 -63 -21 -25 11 -29 9 -95 -61 l-69
-74 74 -69 c71 -66 313 -234 449 -311 68 -38 54 -38 -44 0 -111 45 -293 167
-438 295 -72 64 -69 56 24 -62 130 -164 358 -306 683 -424 113 -41 88 -44 -34
-4 -215 70 -575 236 -654 301 -24 20 -40 44 -48 72 -27 102 -39 121 -105 177
-131 110 -298 328 -415 545 -92 170 -167 407 -194 612 -20 154 -19 247 6 383
91 508 288 922 608 1278 50 56 102 124 116 151 30 61 41 68 49 35 6 -24 8 -24
48 28 53 66 157 168 228 223 116 89 253 149 444 195 166 40 216 47 216 33z
m-90 -237 c0 -8 8 -23 18 -34 l17 -21 90 19 c49 10 92 17 94 14 2 -2 -3 -13
-11 -26 -13 -20 -45 -33 -212 -88 -27 -9 -28 -8 -12 9 20 22 20 42 -1 79 -16
29 -13 62 7 62 5 0 10 -6 10 -14z m-80 -23 c0 -23 -51 -112 -77 -136 -19 -17
-23 -16 -104 9 -133 42 -129 38 -62 62 39 14 71 20 90 16 25 -5 39 1 77 30 52
40 76 45 76 19z m1660 -126 c80 -54 218 -164 241 -194 16 -21 24 -27 -106 79
-44 36 -129 98 -190 138 -60 39 -112 75 -115 78 -9 11 95 -51 170 -101z
m-2400 6 c-28 -38 -97 -111 -154 -163 -223 -205 -340 -363 -491 -660 -82 -162
-144 -331 -177 -484 -19 -86 -22 -130 -22 -296 1 -107 7 -240 13 -295 11 -88
53 -324 67 -380 3 -11 -7 0 -22 24 -98 159 -124 629 -53 961 104 481 414 984
799 1291 47 38 86 69 88 69 1 0 -20 -30 -48 -67z m1530 -94 c80 -17 188 -44
240 -62 119 -39 339 -148 449 -221 68 -47 86 -54 98 -44 12 10 36 -10 146
-123 228 -232 251 -261 311 -382 53 -107 106 -252 120 -327 4 -19 -12 12 -34
70 -22 58 -68 160 -101 228 -55 110 -72 135 -174 245 -138 150 -167 174 -347
288 -518 327 -960 404 -1408 244 -176 -63 -430 -214 -532 -316 -71 -71 -75
-96 -21 -151 37 -37 37 -38 21 -70 -16 -33 -15 -33 26 -83 80 -95 74 -98 -24
-14 -39 34 -74 58 -78 55 -3 -4 35 -48 85 -98 l92 -91 93 95 c109 111 211 182
357 250 150 70 149 69 189 106 l37 33 -50 -6 c-119 -15 -302 -91 -445 -185
-78 -51 -89 -56 -55 -23 111 105 391 223 530 223 26 0 40 8 62 35 31 38 118
194 111 200 -2 3 -62 -15 -134 -40 -71 -24 -169 -56 -219 -71 -126 -37 -328
-142 -395 -204 -71 -66 -90 -67 -50 -3 57 94 292 209 556 273 169 41 230 64
276 108 20 18 31 22 40 14 7 -5 65 -20 129 -31 210 -37 389 -111 582 -240 58
-39 109 -71 113 -71 5 0 -8 17 -27 38 -80 86 -81 89 -3 48 173 -90 370 -288
543 -545 85 -126 183 -367 217 -533 26 -130 15 -358 -24 -508 -54 -201 -124
-356 -247 -540 -38 -58 -78 -122 -87 -143 -31 -66 -175 -204 -353 -337 -93
-70 -189 -139 -213 -154 -69 -43 -197 -96 -296 -121 -50 -13 -79 -24 -65 -25
43 0 227 56 359 110 323 133 532 280 681 480 155 207 276 469 329 710 61 276
48 621 -33 882 l-24 76 22 -10 c37 -17 83 -210 97 -406 19 -259 -9 -497 -86
-726 -115 -342 -307 -631 -533 -802 -328 -248 -701 -373 -1108 -374 -344 0
-671 107 -943 310 -195 146 -324 281 -452 473 -195 292 -280 559 -280 877 0
228 39 426 124 626 164 390 409 655 777 839 348 175 663 219 1029 144z m1338
-413 c139 -158 186 -219 242 -312 122 -201 201 -461 231 -757 6 -65 10 -120 7
-122 -2 -2 -33 -1 -68 3 -75 8 -92 30 -40 52 l32 13 -7 81 c-21 267 -97 530
-221 766 -60 113 -72 129 -214 299 -176 211 -156 199 38 -23z m-1878 157 c-1
-16 -28 -43 -43 -43 -8 0 -17 -5 -19 -10 -2 -6 -50 -26 -106 -45 -192 -65
-298 -123 -439 -242 l-68 -58 47 61 c79 103 168 170 334 249 122 59 295 111
294 88z m-530 -393 c0 -5 -2 -10 -4 -10 -3 0 -8 5 -11 10 -3 6 -1 10 4 10 6 0
11 -4 11 -10z m2488 -77 c47 -81 105 -194 100 -198 -2 -2 -21 9 -43 24 -27 18
-53 51 -83 105 -39 72 -42 81 -31 107 6 16 13 29 14 29 2 0 21 -30 43 -67z
m187 -1024 c44 -33 81 -65 83 -70 7 -19 -40 -215 -83 -347 -38 -117 -49 -141
-68 -146 -12 -3 -40 -23 -62 -46 -48 -49 -51 -83 -11 -164 l28 -57 -33 -52
c-52 -81 -110 -159 -116 -153 -3 2 20 46 51 97 47 80 53 95 42 109 -43 48 -59
135 -35 183 6 12 36 47 66 78 47 49 59 69 92 165 22 60 49 159 61 219 l23 109
-23 18 c-12 10 -26 18 -30 18 -4 0 -10 -26 -13 -57 -12 -114 -97 -396 -114
-379 -2 2 7 40 21 83 28 91 51 207 61 310 12 117 -6 109 -31 -14 -41 -211 -99
-382 -214 -635 -34 -76 -73 -149 -86 -163 -28 -30 -27 -30 82 -5 48 11 89 18
92 15 6 -6 -102 -55 -121 -55 -7 0 -21 -6 -31 -13 -16 -12 -13 -17 40 -60 31
-27 64 -52 73 -57 12 -6 -2 -27 -73 -104 -227 -248 -518 -459 -780 -567 -93
-38 -326 -109 -356 -109 -8 1 21 13 65 28 89 31 267 118 362 178 138 86 261
167 318 207 63 46 67 55 51 123 -6 29 -3 33 66 87 40 31 75 51 77 45 2 -5 -22
-36 -53 -67 -54 -55 -56 -58 -38 -74 17 -16 23 -12 106 65 l89 82 -39 33 c-21
19 -48 36 -60 39 -35 9 -81 -22 -117 -79 -19 -28 -65 -88 -103 -132 -38 -44
-97 -114 -130 -155 -34 -41 -72 -84 -85 -95 l-23 -20 18 30 c11 17 36 50 56
75 56 70 80 107 80 125 0 10 9 33 21 51 11 19 18 34 15 34 -4 0 -30 -19 -59
-42 -100 -79 -250 -141 -491 -202 -120 -31 -229 -56 -242 -56 -13 0 -24 -2
-24 -5 0 -12 40 -84 50 -90 19 -12 51 7 81 48 36 50 62 66 107 67 37 0 82 -37
82 -68 0 -32 -38 -71 -75 -78 -25 -4 -44 -1 -69 14 -33 20 -34 20 -62 1 -16
-10 -44 -19 -61 -19 -29 0 -38 7 -69 55 -52 78 -77 68 -35 -13 l19 -38 -83
-89 c-46 -50 -84 -93 -85 -97 0 -5 25 -8 55 -8 48 0 55 -2 55 -20 0 -18 -7
-20 -67 -22 -158 -4 -238 2 -251 20 -12 15 -9 18 28 22 l41 5 -54 65 c-74 90
-82 96 -113 81 -35 -16 -72 -13 -118 7 l-40 18 45 26 c58 34 107 86 88 92 -8
2 -54 14 -104 26 -158 39 -347 120 -414 176 -41 34 -49 26 -14 -16 34 -41 175
-110 308 -152 55 -17 101 -32 103 -33 1 -1 -12 -39 -29 -83 l-32 -81 -82 30
c-208 73 -422 196 -600 344 -118 98 -190 168 -177 173 6 2 60 -30 119 -71 152
-104 147 -102 180 -73 16 13 39 33 53 45 l25 20 -25 17 c-32 23 -140 129 -120
118 8 -4 66 -45 127 -91 252 -186 489 -285 741 -309 39 -3 72 -9 72 -13 0 -3
-20 -31 -44 -60 l-45 -55 28 -21 c32 -23 91 -91 129 -147 14 -22 33 -38 44
-38 17 0 17 2 4 28 -8 15 -35 55 -60 89 -25 35 -41 62 -35 60 6 -1 13 6 14 17
9 49 25 38 61 -40 52 -114 51 -113 97 -62 34 37 36 38 15 8 -41 -60 -43 -65
-10 -41 34 24 102 102 102 117 0 5 -20 42 -45 82 -25 40 -45 74 -45 76 0 1 51
6 113 9 169 9 392 63 582 141 113 46 275 144 393 238 53 43 111 85 128 94 47
25 113 12 165 -32 23 -19 43 -33 46 -31 5 5 -29 93 -58 149 l-21 41 -44 -44
c-24 -23 -46 -40 -50 -36 -4 3 23 43 58 89 81 105 123 174 198 329 94 196 145
368 185 632 3 20 9 37 13 37 5 0 44 -27 87 -61z m139 -127 c-31 -180 -136
-525 -142 -467 -2 17 15 90 38 163 34 113 57 199 86 330 8 38 25 14 18 -26z
m-3094 -1170 c13 -12 -51 25 -98 56 -42 28 -50 38 -41 49 10 11 23 3 73 -44
33 -31 63 -59 66 -61z m2631 50 c-17 -32 -205 -216 -241 -236 -23 -13 -9 4 40
49 41 38 104 99 140 136 36 38 66 68 68 69 1 0 -2 -8 -7 -18z m-696 -235 c-8
-21 -22 -37 -31 -37 -16 0 -14 6 19 53 25 37 31 29 12 -16z m-32 -49 c36 -24
67 -46 67 -49 0 -8 -88 -55 -92 -49 -14 19 -78 129 -78 134 0 17 44 1 103 -36z
m101 -237 c-172 -109 -474 -201 -618 -188 -96 9 -87 22 31 42 164 27 355 78
498 133 72 28 135 51 140 51 6 1 -17 -17 -51 -38z m-537 -87 c-3 -3 -12 -4
-19 -1 -8 3 -5 6 6 6 11 1 17 -2 13 -5z m-712 -24 c27 -7 27 -8 5 -8 -14 0
-36 4 -50 8 -20 6 -21 8 -5 8 11 0 34 -4 50 -8z"/>
<path d="M2946 4418 c19 -62 23 -66 79 -83 61 -17 85 -14 41 6 -25 12 -36 39
-16 39 6 0 45 -13 88 -29 98 -38 128 -45 136 -33 9 15 -273 122 -321 122 -10
0 -12 -7 -7 -22z"/>
<path d="M4347 3040 c3 -19 11 -42 19 -50 15 -17 44 -171 44 -231 0 -22 2 -39
4 -39 2 0 20 7 40 15 40 17 40 8 15 165 -17 105 -15 102 -61 98 -40 -3 -41 -2
-54 37 -13 39 -13 39 -7 5z"/>
<path d="M4343 2745 c0 -27 2 -38 4 -22 2 15 2 37 0 50 -2 12 -4 0 -4 -28z"/>
<path d="M2502 4520 l-72 -79 66 -76 c37 -41 68 -74 69 -73 1 2 32 38 70 81
78 91 78 90 -9 175 l-51 51 -73 -79z"/>
<path d="M1565 4228 c-102 -70 -195 -140 -195 -146 0 -4 21 -21 46 -39 l46
-31 43 33 c24 18 69 47 100 65 31 18 59 38 62 45 6 18 -19 108 -32 111 -6 2
-37 -16 -70 -38z"/>
<path d="M1054 3758 c-111 -133 -123 -154 -92 -149 4 0 41 -6 83 -15 42 -9 79
-13 82 -10 4 3 1 6 -5 6 -8 0 -9 35 -5 120 3 66 4 120 2 120 -3 0 -32 -33 -65
-72z"/>
<path d="M991 3484 c-22 -27 -27 -44 -13 -44 9 0 44 61 38 67 -2 2 -13 -8 -25
-23z"/>
<path d="M806 3369 c-20 -40 -34 -74 -31 -77 16 -17 84 88 85 131 0 34 -17 16
-54 -54z"/>
<path d="M896 3188 c-32 -49 -66 -138 -90 -233 -33 -132 -49 -236 -38 -247 5
-5 20 50 36 132 27 140 67 275 100 338 19 37 14 43 -8 10z"/>
<path d="M711 2402 l-53 -47 11 -45 c45 -171 88 -271 165 -375 l51 -69 0 -91
0 -90 78 -8 c43 -5 81 -6 83 -4 3 3 -18 51 -47 108 -29 57 -65 136 -81 174
-24 61 -27 65 -23 30 5 -33 0 -27 -24 36 -32 83 -76 269 -87 367 -4 34 -9 62
-13 62 -3 0 -30 -22 -60 -48z m49 -42 c0 -36 55 -255 80 -321 l20 -54 -21 25
c-30 34 -81 148 -113 247 l-26 83 22 36 c23 38 38 32 38 -16z"/>
<path d="M780 1926 c0 -10 15 -47 33 -83 l32 -66 3 48 c3 44 0 52 -32 84 -28
28 -36 32 -36 17z"/>
<path d="M929 1601 c56 -107 200 -323 211 -316 6 3 10 18 10 33 0 15 7 51 15
81 17 65 10 81 -44 108 l-40 20 26 36 c15 21 24 39 22 41 -2 3 -56 18 -120 34
l-115 29 35 -66z"/>
<path d="M2610 4055 c0 -18 97 -180 130 -216 30 -33 49 -43 125 -65 210 -59
420 -201 563 -378 l62 -77 37 36 c37 36 38 37 11 31 -16 -4 -28 -3 -28 2 0 15
92 97 97 86 2 -7 24 -38 49 -70 44 -57 45 -58 26 -77 -19 -19 -19 -20 31 -86
85 -112 144 -257 163 -401 l7 -55 14 50 c17 69 16 106 -7 205 -28 114 -93 247
-172 350 -61 80 -64 87 -51 107 23 34 5 49 -24 21 l-26 -23 18 28 c21 33 28
22 -85 122 -93 83 -190 144 -379 238 -197 98 -400 166 -498 167 l-32 0 30 -32
c17 -18 43 -56 60 -85 29 -51 31 -52 127 -84 174 -57 302 -125 444 -237 l58
-45 45 42 46 42 49 -41 c58 -49 68 -62 51 -68 -7 -2 -28 -18 -47 -34 -42 -37
-45 -23 -4 17 l30 29 -23 24 c-41 44 -51 44 -98 7 -24 -19 -47 -35 -50 -35 -4
0 -38 24 -75 53 -159 122 -359 222 -502 252 -27 6 -42 21 -94 98 -66 100 -78
116 -78 102z m256 -106 c22 -7 33 -18 37 -34 2 -14 4 -25 3 -25 -11 0 -140 61
-149 70 -10 10 -3 11 33 6 25 -4 59 -11 76 -17z m241 -120 c57 -24 176 -100
169 -107 -3 -3 -12 1 -20 8 -9 6 -59 36 -113 66 -104 58 -114 67 -36 33z"/>
<path d="M2539 3977 c-15 -23 -50 -83 -78 -133 -28 -51 -70 -118 -94 -150 -61
-84 -63 -88 -40 -75 21 11 70 65 89 96 8 15 10 7 9 -38 0 -31 -3 -59 -7 -62
-3 -4 -49 -18 -101 -31 -182 -46 -323 -126 -456 -261 -45 -46 -86 -82 -89 -79
-15 16 125 174 258 289 48 42 51 46 20 31 -174 -83 -386 -318 -470 -521 -38
-91 -65 -195 -75 -285 l-7 -68 55 0 c30 0 57 -5 59 -10 4 -13 187 71 210 96 9
11 26 44 38 74 52 132 100 207 185 289 94 90 197 147 329 181 42 11 81 22 85
24 4 3 31 39 59 79 l51 74 -10 61 c-13 74 -25 92 -69 101 -32 7 -35 10 -32 42
1 19 23 75 47 124 43 85 45 87 40 47 -3 -24 -17 -70 -30 -103 -30 -71 -30 -67
-3 -71 16 -2 36 -31 78 -107 72 -132 104 -170 193 -229 70 -46 117 -99 117
-131 0 -11 -8 -8 -27 13 -38 41 -173 100 -173 76 0 -6 15 -57 33 -113 51 -155
52 -170 4 -82 -24 44 -72 122 -106 173 -52 77 -66 91 -76 80 -30 -32 -164
-272 -191 -343 -26 -68 -36 -82 -89 -125 -33 -27 -87 -76 -120 -109 -54 -56
-57 -61 -35 -61 24 0 65 -19 45 -20 -5 -1 -75 -5 -155 -10 -96 -6 -165 -15
-205 -28 -33 -11 -51 -21 -40 -21 11 -1 114 -12 229 -26 249 -30 296 -31 296
-9 0 18 -57 44 -97 44 -62 0 -52 16 30 49 45 19 103 47 129 63 89 56 227 222
204 245 -14 14 -115 -49 -170 -107 -61 -64 -71 -57 -32 25 33 71 68 109 133
145 50 26 58 28 66 15 5 -9 32 -26 60 -39 57 -25 111 -67 128 -99 11 -20 11
-20 -24 2 -46 28 -150 64 -140 48 4 -7 33 -45 65 -85 82 -104 76 -105 -31 -7
-39 35 -42 36 -23 10 53 -78 150 -147 306 -220 69 -32 126 -62 126 -66 0 -3
-10 -9 -22 -12 -33 -7 -319 -111 -346 -126 -25 -13 -62 -67 -62 -90 0 -10 9
-6 28 11 31 29 71 52 79 45 2 -3 -21 -33 -52 -67 -31 -33 -65 -81 -76 -106
l-19 -45 -44 36 c-72 59 -176 188 -163 202 4 3 49 -29 101 -71 51 -42 96 -76
99 -76 3 0 -21 38 -54 83 -48 68 -66 86 -97 95 -52 16 -254 49 -334 56 -78 6
-79 6 -52 -85 21 -71 47 -122 95 -186 45 -60 37 -72 -10 -18 -38 43 -67 99
-98 185 -22 63 -23 64 -18 20 7 -60 63 -176 120 -250 25 -32 76 -82 114 -110
43 -32 74 -63 80 -81 13 -39 0 -38 -73 6 -146 88 -261 236 -300 387 l-13 51
-169 59 c-126 44 -179 58 -207 54 -43 -5 -41 9 3 19 16 4 33 11 36 17 4 7 -28
8 -101 3 l-108 -8 6 94 c11 168 69 342 163 491 16 24 20 38 12 38 -7 0 -29
-26 -49 -58 -142 -224 -199 -402 -199 -624 l0 -117 -41 14 c-23 8 -42 15 -44
15 -1 0 4 -47 11 -105 16 -129 54 -274 100 -381 31 -74 34 -85 25 -125 -13
-56 -14 -159 -2 -159 19 0 26 27 26 102 0 71 2 79 30 108 17 18 44 39 60 47
26 13 23 8 -20 -36 -44 -45 -49 -56 -48 -92 3 -54 11 -77 29 -81 10 -2 -9 -25
-53 -64 l-68 -61 3 128 c3 122 2 130 -26 196 -58 134 -97 290 -107 433 l-6 85
35 25 c33 23 36 29 34 70 -3 39 -7 47 -33 59 -57 26 -66 40 -59 90 11 77 79
255 135 358 30 53 53 99 51 102 -2 3 -22 28 -44 55 l-41 49 -33 -64 c-23 -45
-33 -78 -34 -112 0 -26 -16 -99 -35 -163 -55 -182 -68 -281 -62 -479 7 -190
27 -300 92 -484 20 -57 34 -105 32 -107 -5 -6 -73 140 -97 211 -47 134 -61
217 -67 380 -6 182 8 290 57 463 21 71 29 120 28 160 -3 49 3 69 40 146 52
109 119 200 208 286 59 57 68 69 65 97 -2 27 7 41 66 100 37 38 104 95 148
127 44 33 85 64 90 69 24 23 -39 -17 -116 -74 -297 -219 -542 -614 -631 -1016
-32 -144 -32 -442 1 -593 45 -211 115 -383 224 -548 214 -327 527 -580 850
-687 175 -58 424 -89 607 -75 79 6 81 7 25 9 -76 2 -70 5 131 76 279 99 512
223 662 353 87 75 101 108 21 47 -90 -68 -102 -75 -44 -25 28 24 83 76 123
117 83 84 83 81 3 168 -26 27 -53 59 -61 70 -13 17 -11 16 17 -3 18 -13 58
-46 88 -74 l56 -51 45 44 c97 94 216 301 267 465 27 86 67 277 67 321 l0 26
25 -23 25 -23 0 131 c0 175 -31 314 -115 517 -59 143 -158 300 -205 325 -21
11 -21 11 -7 -17 9 -15 51 -91 96 -167 44 -77 94 -177 111 -224 57 -156 65
-419 20 -612 -19 -78 -45 -140 -151 -350 -71 -140 -129 -260 -129 -267 0 -7
-4 -13 -9 -13 -15 0 -20 54 -7 80 69 135 87 176 109 246 34 109 57 233 60 327
2 94 -7 105 -67 71 l-41 -23 3 145 c4 193 -20 318 -92 487 -22 50 -12 47 15
-5 36 -71 70 -169 94 -273 19 -80 24 -92 24 -59 2 104 -95 370 -163 451 -15
18 -45 42 -67 55 l-39 22 21 22 c31 33 5 41 -36 9 -19 -14 -35 -28 -35 -30 0
-2 20 -37 44 -78 82 -139 123 -250 151 -407 21 -117 20 -137 -6 -145 -12 -4
-76 -4 -143 0 l-121 7 -3 66 c-10 214 -97 412 -241 550 -119 114 -256 186
-418 220 -46 9 -83 19 -83 23 0 3 8 30 18 60 24 70 19 93 -16 84 -51 -14 -55
-11 -74 39 -14 36 -18 70 -16 129 l3 80 49 -62 c26 -34 51 -60 54 -57 6 7
-120 218 -133 223 -5 1 -22 -16 -36 -40z m-296 -547 c-62 -29 -206 -121 -218
-140 -3 -5 -32 -10 -63 -10 -54 0 -57 -1 -103 -50 -110 -117 -174 -253 -167
-354 4 -58 4 -59 -14 -36 -10 12 -21 33 -24 46 -16 65 91 284 195 396 46 50
55 56 65 43 6 -9 30 -19 51 -21 35 -5 47 0 95 37 59 45 204 119 229 118 9 0
-12 -13 -46 -29z m835 -127 c63 -30 140 -104 201 -193 l45 -65 -90 87 c-100
98 -160 145 -231 184 -46 25 -46 26 -13 19 19 -4 59 -18 88 -32z m-213 -78
c20 -8 71 -50 114 -93 88 -88 148 -194 175 -312 20 -84 21 -81 -11 -65 -17 9
-29 11 -31 5 -8 -24 -22 -5 -42 57 -22 70 -54 138 -68 147 -4 2 -46 -29 -92
-70 -47 -41 -88 -74 -92 -74 -5 0 -7 57 -7 128 1 114 2 121 11 72 5 -30 8 -83
6 -117 -2 -35 -1 -63 2 -63 3 0 40 35 83 78 l78 78 -63 60 c-35 32 -75 68 -90
79 -19 14 -29 33 -33 63 -8 48 1 52 60 27z m193 -490 c24 -4 116 -31 204 -61
87 -29 180 -56 206 -59 26 -4 63 -11 82 -17 l35 -11 -65 -13 c-102 -21 -119
-31 -125 -73 -21 -127 -68 -253 -136 -357 -39 -60 -47 -79 -38 -90 9 -11 30 3
114 81 82 76 107 107 129 155 26 58 55 172 56 218 0 13 6 22 15 22 34 0 10
-131 -46 -247 -39 -82 -43 -87 -206 -230 l-33 -28 50 -55 50 -55 40 43 c103
114 188 320 215 525 5 38 10 47 26 47 18 0 19 -5 13 -67 -12 -120 -51 -252
-109 -368 -145 -290 -342 -465 -635 -566 -52 -17 -99 -36 -104 -41 -20 -17 66
-7 146 18 150 47 275 125 415 260 l68 65 88 -93 87 -93 -22 -17 c-132 -99
-240 -172 -305 -206 -95 -49 -351 -141 -494 -177 -57 -15 -109 -31 -116 -36
-6 -6 -21 -37 -32 -71 l-20 -60 52 7 c116 16 177 43 247 110 66 63 84 73 339
173 9 3 12 1 7 -7 -10 -15 -102 -61 -192 -95 -61 -23 -72 -31 -82 -60 -18 -48
-89 -110 -155 -134 -170 -64 -460 -49 -718 38 -206 69 -378 170 -553 325 -91
82 -206 211 -206 233 0 5 50 47 110 92 l110 82 22 -28 c12 -16 56 -64 98 -107
117 -122 247 -212 387 -268 100 -40 111 -36 26 11 -108 58 -162 102 -329 266
-224 220 -317 371 -379 619 -12 50 -26 111 -29 138 -7 45 -6 47 17 47 22 0 26
-6 36 -60 10 -50 18 -64 46 -86 24 -18 35 -35 35 -53 0 -55 57 -220 87 -253
13 -14 13 -20 3 -33 -17 -20 28 -95 132 -219 189 -227 360 -341 619 -411 47
-12 99 -30 116 -39 37 -19 76 -94 93 -178 10 -49 33 -90 44 -77 2 2 10 46 19
97 21 130 53 189 156 292 84 83 111 102 354 243 49 28 114 75 145 103 l57 51
-34 39 c-19 21 -50 56 -68 78 l-35 38 -41 -40 c-66 -63 -153 -119 -237 -151
-80 -31 -205 -59 -216 -48 -4 4 5 22 20 42 19 25 35 35 54 35 39 1 155 44 220
82 31 18 95 71 142 118 113 113 180 239 210 399 5 30 18 60 28 68 15 12 13 13
-18 7 -19 -3 -72 -17 -118 -30 -74 -22 -88 -30 -140 -81 -31 -32 -67 -79 -79
-105 -12 -27 -34 -64 -49 -84 l-27 -35 49 -50 c60 -61 53 -63 -17 -5 l-53 44
-36 -32 c-19 -17 -49 -37 -67 -45 -23 -9 -33 -21 -37 -46 -8 -41 -89 -207
-164 -337 l-56 -98 -26 48 c-15 26 -56 94 -91 152 -96 157 -124 236 -165 468
-3 12 -11 22 -19 22 -11 0 -15 11 -15 39 0 21 -3 60 -6 87 l-6 49 27 -45 c15
-25 34 -53 43 -64 12 -12 17 -38 18 -80 3 -116 68 -269 177 -422 63 -87 65
-92 61 -140 -5 -48 -4 -48 55 71 74 146 113 265 148 441 16 81 31 135 39 138
7 3 38 0 68 -6 55 -12 55 -12 108 25 29 20 78 61 108 92 l54 55 -87 0 c-48 0
-87 4 -87 8 0 5 18 17 39 27 39 17 41 17 105 -6 66 -24 80 -41 54 -67 -25 -25
0 -20 42 8 25 17 51 30 58 30 37 0 -3 24 -133 80 -80 34 -145 67 -145 72 0 5
8 7 18 4 9 -2 37 -8 60 -11z m-1468 -155 c17 -5 -3 -8 -60 -8 -57 0 -77 3 -60
8 14 4 41 8 60 8 19 0 46 -4 60 -8z m1993 -27 c-13 -2 -33 -2 -45 0 -13 2 -3
4 22 4 25 0 35 -2 23 -4z m-2449 -115 c9 -122 31 -248 60 -350 14 -46 23 -84
21 -86 -2 -2 -13 23 -25 55 -30 79 -68 249 -75 337 -3 39 -8 86 -11 104 -4 23
-1 32 9 32 11 0 16 -23 21 -92z m420 -6 c20 -114 50 -185 112 -265 25 -31 44
-62 42 -68 -6 -19 -105 97 -132 155 -42 89 -77 276 -52 276 8 0 19 -38 30 -98z
m2166 64 c0 -100 -54 -285 -124 -424 l-44 -87 20 -25 c21 -26 108 -193 108
-207 0 -11 -56 73 -82 122 -12 22 -37 55 -56 72 l-35 33 51 107 c57 122 98
263 108 371 6 67 8 72 30 72 21 0 24 -5 24 -34z m-2034 -13 c12 -74 44 -169
83 -250 50 -103 113 -202 118 -186 7 20 163 125 163 109 0 -2 -21 -18 -47 -34
-73 -47 -116 -96 -108 -121 10 -33 26 -26 90 39 33 33 63 60 68 60 5 0 5 -24
2 -54 -10 -79 2 -128 47 -198 42 -65 40 -64 -51 12 -31 25 -50 36 -43 25 12
-22 64 -73 165 -159 37 -32 66 -61 63 -63 -9 -9 -117 46 -180 91 -84 60 -157
140 -150 163 4 10 -23 -13 -59 -52 -49 -52 -66 -65 -67 -51 0 11 17 40 38 65
20 25 43 54 51 64 12 15 8 27 -37 100 -103 169 -168 316 -196 450 -6 24 -3 27
18 27 21 0 26 -6 32 -37z m1552 -159 c-55 -114 -159 -223 -263 -276 -100 -51
-134 -57 -48 -8 104 58 191 144 275 271 39 60 74 107 76 105 2 -2 -16 -44 -40
-92z m-1892 -158 c43 -97 45 -109 19 -114 -17 -4 -18 -2 -6 12 12 14 9 27 -22
94 -37 78 -67 179 -66 217 0 11 9 -13 19 -54 11 -40 36 -110 56 -155z m2449
137 c-15 -100 -80 -234 -106 -217 -5 3 1 19 15 35 25 29 57 106 79 186 15 57
21 55 12 -4z m-1395 -584 c58 -22 97 -44 123 -69 34 -35 37 -42 37 -94 0 -31
-2 -56 -3 -56 -2 0 -20 24 -40 53 -41 60 -79 84 -184 117 -81 25 -93 35 -122
102 l-20 47 62 -34 c34 -18 100 -48 147 -66z m-394 0 c43 -29 225 -114 268
-125 15 -3 28 -10 31 -14 8 -13 -105 20 -172 50 -60 27 -121 66 -173 111 -30
25 -10 16 46 -22z m824 -119 c-62 -41 -166 -146 -197 -198 -14 -23 -31 -62
-38 -85 l-14 -42 0 35 c-1 19 10 59 24 89 41 88 197 229 255 231 8 0 -5 -14
-30 -30z m-650 -15 c74 -37 95 -56 35 -31 -41 18 -124 66 -112 66 4 0 39 -16
77 -35z m269 -25 c35 -10 51 -25 51 -48 0 -8 -16 -4 -49 13 -77 39 -78 57 -2
35z m69 -135 c34 -68 -21 -25 -91 70 l-22 30 50 -36 c28 -20 56 -49 63 -64z
m221 -228 c0 -12 -57 -62 -63 -56 -9 11 17 68 32 72 21 4 32 -1 31 -16z"/>
<path d="M2806 2372 c4 -15 11 -35 15 -44 12 -22 11 -95 0 -136 -5 -17 -7 -32
-3 -32 22 1 125 119 158 182 l14 27 -48 -6 c-37 -4 -60 0 -95 15 l-47 21 6
-27z"/>
<path d="M1488 1727 c-38 -23 -68 -46 -68 -52 0 -6 31 -49 70 -97 68 -85 188
-192 299 -267 180 -122 439 -209 680 -227 87 -7 91 -6 85 12 -23 62 -130 174
-198 208 -17 8 -92 31 -166 52 -166 45 -290 102 -397 182 -78 59 -223 204
-223 223 0 15 -13 10 -82 -34z m169 -102 c29 -21 49 -81 33 -100 -20 -24 -99
-19 -127 7 -28 27 -29 48 -2 82 23 30 63 34 96 11z m218 -283 c39 -22 131 -73
205 -112 87 -46 122 -69 100 -64 -87 16 -240 95 -352 181 -59 45 -91 80 -48
52 14 -9 57 -34 95 -57z m448 -127 c26 -10 46 -19 44 -21 -2 -2 -30 1 -62 8
-50 10 -66 19 -119 70 l-61 58 75 -48 c41 -27 96 -57 123 -67z"/>
<path d="M3305 1690 c-114 -98 -230 -161 -377 -204 -78 -22 -83 -25 -80 -49 3
-22 -10 -36 -84 -94 -79 -62 -84 -68 -60 -71 16 -2 41 7 68 27 24 16 84 43
135 60 158 52 357 163 461 258 l42 38 -29 38 -29 38 -47 -41z"/>
<path d="M3380 1593 c-25 -24 -89 -74 -142 -110 -54 -37 -96 -69 -93 -71 9 -9
132 58 196 106 79 61 113 97 104 111 -9 16 -15 13 -65 -36z"/>
<path d="M2690 3745 c0 -16 29 -72 44 -84 30 -25 28 -3 -4 43 -29 43 -40 54
-40 41z"/>
<path d="M2762 3722 c79 -108 149 -177 246 -244 58 -40 140 -105 181 -145 l75
-72 31 24 c16 13 46 38 65 55 l35 30 -76 74 c-132 128 -306 230 -469 275 -95
27 -105 27 -88 3z"/>
<path d="M1396 3518 c-31 -35 -75 -92 -99 -127 l-43 -64 47 -44 c25 -23 49
-43 53 -43 11 0 126 80 126 87 0 4 -7 15 -17 25 -9 10 -13 21 -9 25 4 4 32
-18 63 -49 l56 -56 -39 -69 c-87 -150 -129 -281 -141 -430 l-6 -83 40 0 40 0
6 83 c12 148 82 354 164 479 l17 27 -102 97 c-126 119 -130 124 -102 169 34
55 7 41 -54 -27z m24 -95 c0 -14 -68 -88 -74 -82 -7 7 52 89 65 89 5 0 9 -3 9
-7z"/>
<path d="M3380 3307 c-14 -12 -41 -34 -59 -49 l-34 -26 31 -49 c77 -120 131
-278 148 -430 l7 -63 98 0 99 0 0 26 c0 86 -59 293 -116 407 -38 75 -126 207
-139 207 -5 0 -21 -11 -35 -23z"/>
<path d="M2359 3225 c-88 -29 -182 -86 -245 -152 l-45 -46 50 -51 c28 -29 51
-55 51 -59 0 -3 -26 9 -57 28 -32 19 -62 35 -66 35 -13 0 -76 -142 -83 -188
l-7 -44 99 50 c54 27 130 75 168 106 37 31 76 61 86 66 10 6 27 39 39 78 11
38 36 99 54 135 19 37 33 67 33 67 -1 -1 -35 -12 -77 -25z"/>
<path d="M1367 3178 c-59 -60 -124 -176 -156 -282 -28 -90 -27 -110 5 -125 34
-15 40 -10 47 44 13 95 85 269 148 362 16 23 29 44 29 47 0 17 -27 0 -73 -46z"/>
<path d="M2026 3044 c-10 -25 1 -29 14 -5 6 12 7 21 1 21 -5 0 -12 -7 -15 -16z"/>
<path d="M3931 3040 c-1 -8 8 -69 19 -135 11 -66 20 -130 20 -143 0 -14 -22
-44 -60 -81 l-59 -59 50 -58 51 -57 -7 -66 c-3 -36 -15 -104 -26 -150 -11 -46
-18 -86 -15 -88 4 -4 41 143 51 203 4 26 16 50 31 63 22 20 24 27 24 124 0
124 -14 245 -41 352 -21 82 -38 125 -38 95z"/>
<path d="M1945 2923 c-15 -16 -37 -48 -50 -73 -13 -25 -33 -54 -45 -65 l-22
-20 24 -6 c57 -17 64 -12 78 48 7 31 21 76 31 100 10 24 17 43 15 43 -2 0 -16
-12 -31 -27z"/>
<path d="M2546 2842 c-4 -10 -27 -33 -52 -50 -47 -34 -74 -80 -74 -129 0 -41
38 -110 76 -139 19 -15 34 -36 34 -48 1 -11 7 -34 15 -51 l13 -30 3 40 c1 22
2 46 2 53 -1 6 4 12 10 12 6 0 30 9 54 21 48 23 93 87 93 133 0 45 -31 97 -73
125 -22 14 -52 38 -68 54 -25 25 -28 26 -33 9z m14 -87 c26 -32 -18 -105 -64
-105 -13 0 -29 7 -36 15 -17 21 4 71 39 90 34 18 46 18 61 0z"/>
<path d="M2783 953 c9 -2 23 -2 30 0 6 3 -1 5 -18 5 -16 0 -22 -2 -12 -5z"/>
<path d="M1591 1058 l-45 -32 43 -36 c86 -75 340 -208 429 -226 52 -10 41 20
-15 41 -68 25 -244 114 -267 134 -10 9 -34 46 -52 84 -19 37 -38 67 -42 67 -4
-1 -27 -15 -51 -32z"/>
<path d="M3011 816 c-18 -21 3 -56 34 -56 22 0 55 23 55 39 0 29 -68 42 -89
17z"/>
<path d="M4742 2245 c0 -16 2 -22 5 -12 2 9 2 23 0 30 -3 6 -5 -1 -5 -18z"/>
</g>
</svg>